<svg width="75" height="27" viewBox="0 0 75 27" fill="none" xmlns="http://www.w3.org/2000/svg">
<g id="Group 1">
<path id="Vector" d="M35.6601 1.47533C35.832 1.81694 35.919 2.29223 35.9521 3.06456V7.94999L35.951 14.9933C35.951 16.5433 35.951 18.0922 35.9487 19.6421C35.9487 20.127 35.9234 20.5885 35.8738 21.0118C35.7835 21.7947 35.5444 22.4291 35.1444 22.95C34.5627 23.7064 33.7419 24.0586 32.5585 24.0586C32.5244 24.0586 32.4902 24.0586 32.4561 24.0586C31.0932 24.0364 30.0916 23.3489 29.6355 22.1257C29.403 21.5019 29.2895 20.7974 29.2906 19.9742C29.2906 18.2428 29.2917 16.5125 29.2917 14.7811V3.15155C29.3061 2.25615 29.3545 1.76708 29.4625 1.4085L29.6267 0.864258H26.5273L26.7135 1.42017C26.8557 1.84559 26.8832 2.47682 26.8854 3.64487C26.8854 6.31939 26.8854 13.1537 26.8854 13.8974V15.1291C26.8854 16.4616 26.8854 17.7941 26.8843 19.1255C26.8843 19.222 26.8843 19.3186 26.8843 19.4151C26.8876 19.8808 26.8898 20.3211 26.8248 20.7486C26.7455 21.277 26.632 21.887 26.3962 22.4068C25.8916 23.5187 24.9518 24.0586 23.5205 24.0586H23.4357C22.0078 24.0374 21.0096 23.3447 20.5479 22.0557C20.3121 21.3958 20.1964 20.6892 20.1964 19.8967C20.1964 17.9426 20.1942 5.27865 20.1942 4.62195V3.09426C20.1986 2.9903 20.2031 2.89057 20.2097 2.79615C20.2504 2.18401 20.3353 1.77663 20.4873 1.47427L20.7947 0.864258H17.1621L17.4949 1.48488C17.5896 1.66205 17.6557 1.87423 17.7031 2.15006C17.7527 2.44499 17.7813 2.82055 17.7923 3.32342V3.57273C17.7923 6.34061 17.7923 12.7686 17.7923 13.2152V14.6793C17.7934 16.4722 17.7956 18.2661 17.7978 20.0591C17.7978 20.6097 17.8463 21.1571 17.94 21.6886C18.2342 23.3606 18.9856 24.5679 20.2372 25.3773C21.1495 25.9683 22.2226 26.2568 23.5316 26.2589C25.3958 26.2589 26.8711 25.5471 27.9134 24.1414C27.9751 24.0586 28.0313 23.9748 28.0853 23.89C28.45 24.4501 28.8764 24.9031 29.3799 25.267C30.2977 25.929 31.3807 26.2653 32.5993 26.2653C32.8351 26.2653 33.0797 26.2526 33.3276 26.2282C35.5951 26.0033 37.1332 24.8808 37.9011 22.8917C38.2383 22.0175 38.3892 21.0743 38.3892 19.8352C38.3892 17.8556 38.3892 6.08069 38.3892 3.0688C38.419 2.27207 38.5027 1.8127 38.6779 1.48488L39.0106 0.864258H35.3538L35.6601 1.47427" fill="#113D33"/>
<path id="Vector_2" d="M9.85001 9.10414H12.9681L12.783 8.54823C12.6893 8.26922 12.6342 7.97004 12.61 7.60722C12.6144 7.22211 12.6155 6.80942 12.5924 6.39992C12.5659 5.92675 12.5086 5.50876 12.4194 5.12153C12.2442 4.36087 11.9632 3.68614 11.5842 3.1175C10.8758 2.05236 9.80814 1.32883 8.41328 0.966001C7.85908 0.821719 7.27182 0.754883 6.56227 0.754883C6.31547 0.754883 6.04663 0.76337 5.73923 0.780344C3.29546 0.915078 1.36512 2.40882 0.702943 4.67702C0.385627 5.7655 0.405459 6.87944 0.449531 7.83743C0.529961 9.60064 1.2274 11.087 2.5231 12.255C3.55328 13.1833 4.78728 13.7169 5.74804 14.0776L5.97611 14.1636C6.71542 14.4405 7.48116 14.728 8.17088 15.0897C9.33768 15.7029 10.0549 16.5697 10.3039 17.6645C10.4031 18.0995 10.445 18.5546 10.4813 18.9556C10.4957 19.1105 10.5089 19.2559 10.5243 19.3885C10.5089 19.6144 10.4979 19.8213 10.4879 20.0155C10.4681 20.408 10.4505 20.7475 10.3998 21.07C10.2147 22.2635 9.6572 23.091 8.69754 23.6013C7.95052 23.9981 7.10325 24.1381 6.09951 24.0299C5.24012 23.9365 4.55701 23.6469 4.01052 23.1451C3.31309 22.5033 2.92856 21.6482 2.83601 20.5321C2.8305 20.4663 2.82609 20.4006 2.82279 20.3348V19.6579C2.82279 19.0575 2.86245 18.6798 2.96602 18.3106L3.11586 17.7749H0L0.185101 18.3308C0.304094 18.6872 0.360286 19.0649 0.372405 19.5784C0.372405 19.7142 0.372405 19.8489 0.375711 19.9847C0.390034 20.6743 0.457243 21.2355 0.588356 21.7522C0.776763 22.4927 1.05882 23.1536 1.42902 23.7169C2.0923 24.7269 3.05637 25.4579 4.29588 25.8918C5.01095 26.1421 5.77889 26.2631 6.6449 26.2631C6.90382 26.2631 7.16715 26.2525 7.45141 26.2313C10.1332 26.0265 12.2078 24.2654 12.7378 21.7447C12.9846 20.5703 13.0088 19.2813 12.8138 17.8035C12.5836 16.0626 11.6889 14.6314 10.1552 13.5504C9.17792 12.8608 8.11579 12.4396 6.92806 11.9983C6.04663 11.6705 5.40539 11.3766 4.84678 11.0445C3.79567 10.4186 3.15663 9.50728 2.94509 8.33605C2.74126 7.20726 2.79084 6.12833 3.09163 5.13002C3.31088 4.40119 3.74058 3.84103 4.3675 3.46335C4.94374 3.11644 5.63125 2.94882 6.47082 2.94882H6.54023C8.60168 2.9711 9.71559 3.87816 10.0472 5.80475C10.1299 6.28746 10.1332 6.78608 10.1376 7.31441L10.1398 7.51916C10.1277 7.95201 10.0858 8.26603 10.001 8.57051L9.85111 9.10626" fill="#113D33"/>
<path id="Vector_3" d="M71.3432 0.864258L71.6495 1.47533C71.8225 1.82119 71.9106 2.30496 71.9426 3.07729C71.9426 4.24958 71.9393 9.73442 71.9382 10.3052C71.9371 10.7147 71.925 11.1942 71.8478 11.6536C71.7112 12.4673 71.4303 13.1134 70.9895 13.6311C70.7879 13.8677 70.551 14.0777 70.2855 14.256C70.1566 14.3419 70.02 14.4215 69.8778 14.4915C69.3457 14.7535 68.7551 14.8808 68.072 14.8808C67.9684 14.8808 67.8638 14.8776 67.758 14.8723C66.254 14.7885 65.2195 14.1647 64.5969 12.9659C64.3292 12.4493 64.165 11.8933 64.1111 11.313C64.0978 11.1762 64.0912 11.0361 64.0901 10.8972C64.0846 9.91477 64.0791 7.04716 64.078 6.59522L64.0758 3.21839C64.1044 2.34633 64.1904 1.8424 64.3733 1.47746L64.6807 0.86638H61.0117L61.3445 1.487C61.5263 1.82755 61.6111 2.31875 61.6375 3.17065C61.6353 5.64254 61.6453 10.7688 61.6475 10.8484C61.6596 11.3555 61.7081 11.8307 61.7907 12.2615C61.9163 12.9203 62.1344 13.5388 62.4374 14.0968C63.3244 15.7285 64.8647 16.7512 66.7785 16.9772C66.8038 16.9803 67.4098 17.0482 68.1216 17.0482C68.5381 17.0482 68.9083 17.0249 69.2212 16.9782C70.1103 16.8467 70.8606 16.6005 71.5228 16.2197C71.5691 16.1921 71.7564 16.0765 71.9834 15.8929C71.9613 16.2324 71.9426 16.5645 71.9415 16.8191L71.9382 19.6262C71.9305 19.7631 71.9239 19.8936 71.9172 20.0177C71.8974 20.4113 71.8798 20.7508 71.8291 21.0733C71.644 22.2668 71.0865 23.0943 70.1268 23.6046C69.7059 23.8284 69.2399 23.9727 68.7408 24.0332C68.3629 24.0799 67.9563 24.0788 67.5299 24.0332C67.4572 24.0258 67.3845 24.0152 67.3129 24.0045C66.5526 23.8878 65.9411 23.6078 65.4409 23.1484C64.7424 22.5066 64.359 21.6515 64.2664 20.5354C64.2609 20.4654 64.2565 20.3954 64.2521 20.3253V19.6634C64.2521 19.0629 64.2918 18.6852 64.3953 18.316L64.5452 17.7803H61.4326L61.6177 18.3362C61.7257 18.6597 61.7819 19.0056 61.8006 19.4565C61.7973 19.7291 61.8006 19.9689 61.8083 20.1874C61.8303 20.7879 61.8965 21.2865 62.0154 21.7565C62.2039 22.497 62.4859 23.1579 62.8561 23.7213C63.5194 24.7313 64.4835 25.4622 65.723 25.8951C66.438 26.1454 67.206 26.2664 68.072 26.2664C68.3309 26.2664 68.5942 26.2558 68.8785 26.2345C71.5603 26.0298 73.6349 24.2687 74.1649 21.748C74.3324 20.9513 74.3963 20.1174 74.3621 19.2157L74.3764 3.13033C74.404 2.29965 74.4888 1.82437 74.6673 1.49019L75.0001 0.869562H71.3443" fill="#113D33"/>
<path id="Vector_4" d="M53.9939 15.4364C53.6512 15.3176 53.259 15.256 52.8932 15.256C51.8112 15.256 50.781 15.7716 49.7839 16.2692C48.8022 16.7593 47.8756 17.2229 46.9281 17.2229C46.6493 17.2229 46.3441 17.1773 46.0797 17.0924V15.4353C46.0797 12.5677 46.0797 8.55965 46.083 7.294C46.0841 6.8707 46.1061 6.55562 46.1546 6.2713C46.4477 4.5484 47.274 3.54055 48.7549 3.09921C48.8948 3.05784 49.0413 3.02707 49.1912 3.00161C49.2804 2.98888 49.3708 2.97615 49.4644 2.96872C49.6561 2.95281 49.8666 2.94432 50.034 2.94326C50.2015 2.94538 50.4153 2.95281 50.6081 2.96872C50.7017 2.97615 50.791 2.98888 50.8813 3.00161C51.0323 3.02707 51.1788 3.05784 51.3176 3.09921C52.7984 3.54055 53.6248 4.5484 53.9178 6.2713C53.9663 6.55562 53.9884 6.8707 53.9895 7.294C53.9928 8.55859 53.9939 12.5667 53.9939 15.4353M56.6767 25.5075C56.6712 25.4958 56.6657 25.4841 56.6602 25.4725C56.647 25.4459 56.6338 25.4205 56.6216 25.3918C56.6161 25.378 56.6106 25.3632 56.6051 25.3494C56.5941 25.3208 56.582 25.2932 56.5721 25.2624C56.5677 25.2486 56.5632 25.2327 56.5588 25.2189C56.5489 25.1871 56.539 25.1542 56.5291 25.1202C56.5247 25.1043 56.5214 25.0863 56.517 25.0693C56.5082 25.0354 56.5004 25.0004 56.4927 24.9632C56.4883 24.9431 56.485 24.9208 56.4806 24.9006C56.474 24.8656 56.4674 24.8306 56.4619 24.7935C56.4575 24.7659 56.4542 24.7383 56.4498 24.7097C56.4454 24.6768 56.4409 24.6439 56.4365 24.6089C56.4321 24.5728 56.4288 24.5357 56.4244 24.4975C56.4211 24.4689 56.4189 24.4392 56.4156 24.4084C56.4123 24.3628 56.4079 24.3161 56.4046 24.2683C56.4046 24.2535 56.4024 24.2376 56.4013 24.2227C56.4013 21.6193 56.4013 19.0169 56.4013 16.4135V14.5516V13.0971C56.4013 11.0294 56.4013 8.96067 56.4013 6.89298C56.4013 5.85436 56.1875 4.88576 55.7689 4.01477C55.0461 2.51148 53.8683 1.51742 52.2685 1.06123C52.0503 0.998638 51.8333 0.945593 51.6162 0.901035C51.0984 0.787519 50.5706 0.732353 50.034 0.733413C49.4986 0.732353 48.9697 0.787519 48.4519 0.898913C48.2348 0.943471 48.0178 0.996516 47.7996 1.05911C46.1998 1.51529 45.0231 2.50935 44.2992 4.01265C43.8794 4.88364 43.6668 5.85224 43.6668 6.89086C43.6657 8.95855 43.6657 11.0273 43.6668 13.095V16.4113C43.6668 19.0148 43.6668 21.6172 43.6668 24.2206C43.6668 24.2355 43.6646 24.2514 43.6635 24.2662C43.6602 24.315 43.6569 24.3617 43.6525 24.4063C43.6503 24.437 43.6469 24.4667 43.6436 24.4954C43.6403 24.5336 43.6359 24.5707 43.6315 24.6068C43.6271 24.6418 43.6227 24.6747 43.6183 24.7076C43.6139 24.7362 43.6106 24.7649 43.6062 24.7914C43.6007 24.8285 43.5941 24.8635 43.5875 24.8985C43.583 24.9197 43.5797 24.941 43.5753 24.9611C43.5676 24.9982 43.5599 25.0333 43.5511 25.0672C43.5467 25.0842 43.5434 25.1012 43.539 25.1181C43.5302 25.1531 43.5191 25.185 43.5092 25.2168C43.5048 25.2316 43.5004 25.2465 43.496 25.2603C43.4861 25.2911 43.474 25.3186 43.463 25.3473C43.4574 25.3611 43.4519 25.3759 43.4464 25.3897C43.4343 25.4173 43.4211 25.4438 43.4079 25.4703C43.4024 25.482 43.3968 25.4947 43.3913 25.5054L43.0586 26.126H46.6681L46.3607 25.5149C46.2009 25.1966 46.1161 24.7723 46.0775 24.0997C46.0775 24.0997 46.0775 21.1525 46.0775 19.2153C46.3728 19.3023 46.711 19.3468 47.0239 19.3468C48.1059 19.3468 49.1361 18.8313 50.1332 18.3337C51.1149 17.8436 52.0415 17.3799 52.989 17.3799C53.3207 17.3799 53.6788 17.4425 53.9917 17.5635C53.9917 17.6568 53.9917 24.1007 53.9917 24.1007C53.9531 24.7744 53.8683 25.1977 53.7085 25.516L53.4022 26.127H57.0073L56.6745 25.5064L56.6767 25.5075Z" fill="#113D33"/>
</g>
</svg>
